Patient4_TMGait_0pt5_01_left_08_GRF.mot
version=1
nRows=75
nColumns=19
inDegrees=no
endheader
time	F1x	F1y	F1z	M1x	M1y	M1z	F2x	F2y	F2z	M2x	M2y	M2z	EC1x	EC1y	EC1z	EC2x	EC2y	EC2z
10.74	0	0	0	0	0	0	-39.5249	704.8046	-64.4076	264.3549	66.2457	571.5238	-0.0462	0.0182	-0.0073	-0.0462	0.0165	0.9715
10.7533	0	0	0	0	0	0	-41.7252	738.6839	-66.0491	276.2536	67.787	597.4177	-0.0462	0.0182	-0.0073	-0.0462	0.0165	0.9715
10.7666	0	0	0	0	0	0	-43.1496	757.945	-66.1707	282.6246	67.7844	610.8144	-0.0462	0.0182	-0.0073	-0.0462	0.0165	0.9715
10.7799	0	0	0	0	0	0	-43.9449	766.3	-65.1785	284.9502	66.6769	614.7185	-0.0462	0.0182	-0.0073	-0.0462	0.0165	0.9715
10.7931	0	0	0	0	0	0	-44.2532	767.8098	-63.4864	284.8385	64.9032	612.4597	-0.0462	0.0182	-0.0073	-0.0462	0.0165	0.9715
10.8064	0	0	0	0	0	0	-44.1765	766.1496	-61.4457	283.7369	62.8254	607.0904	-0.0462	0.0182	-0.0073	-0.0462	0.0165	0.9715
10.8197	0	0	0	0	0	0	-43.7596	764.1096	-59.3057	282.7375	60.6873	600.9695	-0.0462	0.0182	-0.0073	-0.0462	0.0165	0.9715
10.833	0	0	0	0	0	0	-42.9921	763.3687	-57.2041	282.4902	58.6056	595.5667	-0.0462	0.0182	-0.0073	-0.0462	0.0165	0.9715
10.8463	0	0	0	0	0	0	-41.8251	764.5243	-55.1817	283.2148	56.5907	591.4741	-0.0462	0.0182	-0.0073	-0.0462	0.0165	0.9715
10.8596	0	0	0	0	0	0	-40.1966	767.3128	-53.2137	284.7877	54.5822	588.5732	-0.0462	0.0182	-0.0073	-0.0462	0.0165	0.9715
10.8729	0	0	0	0	0	0	-38.0547	770.9351	-51.247	286.8697	52.4916	586.2893	-0.0462	0.0182	-0.0073	-0.0462	0.0165	0.9715
10.8861	0	0	0	0	0	0	-35.373	774.3987	-49.2365	289.04	50.2392	583.8631	-0.0462	0.0182	-0.0073	-0.0462	0.0165	0.9715
10.8994	0	0	0	0	0	0	-32.1562	776.8066	-47.1728	290.9103	47.7809	580.5813	-0.0462	0.0182	-0.0073	-0.0462	0.0165	0.9715
10.9127	0	0	0	0	0	0	-28.4357	777.5476	-45.097	292.2012	45.121	575.9331	-0.0462	0.0182	-0.0073	-0.0462	0.0165	0.9715
10.926	0	0	0	0	0	0	-24.2614	776.3781	-43.1003	292.7763	42.311	569.6841	-0.0462	0.0182	-0.0073	-0.0462	0.0165	0.9715
10.9393	0	0	0	0	0	0	-19.6925	773.4086	-41.3082	292.6404	39.4369	561.8753	-0.0462	0.0182	-0.0073	-0.0462	0.0165	0.9715
10.9526	0	0	0	0	0	0	-14.7926	769.02	-39.8551	291.9098	36.5998	552.7701	-0.0462	0.0182	-0.0073	-0.0462	0.0165	0.9715
10.9659	0	0	0	0	0	0	-9.6312	763.7406	-38.8545	290.7665	33.8956	542.7707	-0.0462	0.0182	-0.0073	-0.0462	0.0165	0.9715
10.9791	0	0	0	0	0	0	-4.2892	758.1103	-38.3723	289.4067	31.3989	532.3242	-0.0462	0.0182	-0.0073	-0.0462	0.0165	0.9715
10.9924	0	0	0	0	0	0	1.1316	752.5531	-38.409	287.9911	29.1535	521.8334	-0.0462	0.0182	-0.0073	-0.0462	0.0165	0.9715
11.0057	0	0	0	0	0	0	6.5019	747.2744	-38.8923	286.6035	27.1701	511.5835	-0.0462	0.0182	-0.0073	-0.0462	0.0165	0.9715
11.019	0	0	0	0	0	0	11.6627	742.1937	-39.6818	285.2222	25.4294	501.69	-0.0462	0.0182	-0.0073	-0.0462	0.0165	0.9715
11.0323	0	0	0	0	0	0	16.4332	736.9197	-40.5841	283.7082	23.8896	492.0735	-0.0462	0.0182	-0.0073	-0.0462	0.0165	0.9715
11.0456	16.7917	30.8091	-2.8555	-10.8916	8.6037	22.9816	20.6274	730.7725	-41.3762	281.811	22.4948	482.4609	-0.0462	0.0182	-0.0073	-0.0462	0.0165	0.9715
11.0589	19.7829	63.7959	-3.7853	-22.5949	10.3217	50.759	24.0804	722.8518	-41.8345	279.1932	21.1829	472.4151	-0.0462	0.0182	-0.0073	-0.0462	0.0165	0.9715
11.0721	21.1559	104.1526	-4.0218	-36.8725	10.8765	84.7789	26.6772	712.1456	-41.766	275.4711	19.8937	461.3895	-0.0462	0.0182	-0.0073	-0.0462	0.0165	0.9715
11.0854	20.4279	149.7775	-3.2801	-52.9698	9.8763	123.23	28.3774	697.6649	-41.0371	270.2662	18.5748	448.8008	-0.0462	0.0182	-0.0073	-0.0462	0.0165	0.9715
11.0987	17.4384	197.9276	-1.3689	-69.9121	7.1247	163.7278	29.2273	678.582	-39.5945	263.2576	17.1885	434.1109	-0.0462	0.0182	-0.0073	-0.0462	0.0165	0.9715
11.112	12.421	245.7384	1.7536	-86.691	2.6919	203.7519	29.353	654.3439	-37.476	254.2262	15.7175	416.9006	-0.0462	0.0182	-0.0073	-0.0462	0.0165	0.9715
11.1253	5.9644	290.7827	5.9506	-102.4635	-3.0781	241.1274	28.9321	624.7377	-34.8045	243.08	14.1704	396.9223	-0.0462	0.0182	-0.0073	-0.0462	0.0165	0.9715
11.1386	-1.1205	331.4819	10.9262	-116.6948	-9.6338	274.3882	28.1506	589.8978	-31.7654	229.8574	12.5829	374.1236	-0.0462	0.0182	-0.0073	-0.0462	0.0165	0.9715
11.1519	-7.9709	367.2575	16.2879	-129.2077	-16.3325	302.9254	27.1569	550.2683	-28.5712	214.7143	11.0146	348.6445	-0.0462	0.0182	-0.0073	-0.0462	0.0165	0.9715
11.1651	-13.8298	398.4397	21.6322	-140.1443	-22.568	326.9258	26.0283	506.544	-25.4224	197.9042	9.5403	320.7994	-0.0462	0.0182	-0.0073	-0.0462	0.0165	0.9715
11.1784	-18.1577	426.0273	26.6262	-149.8754	-27.8788	347.1757	24.7588	459.6136	-22.4766	179.7582	8.2386	291.0536	-0.0462	0.0182	-0.0073	-0.0462	0.0165	0.9715
11.1917	-20.6877	451.3982	31.0664	-158.8944	-32.015	364.8176	23.2724	410.5158	-19.8328	160.6707	7.1808	259.9992	-0.0462	0.0182	-0.0073	-0.0462	0.0165	0.9715
11.205	-21.4263	476.039	34.9015	-167.7205	-34.9529	381.117	21.4571	360.404	-17.5309	141.0882	6.4203	228.3299	-0.0462	0.0182	-0.0073	-0.0462	0.0165	0.9715
11.2183	-20.611	501.3183	38.2152	-176.8206	-36.8641	397.2646	19.2088	310.5091	-15.562	121.4949	5.9838	196.8098	-0.0462	0.0182	-0.0073	-0.0462	0.0165	0.9715
11.2316	-18.6379	528.3056	41.18	-186.5489	-38.0477	414.2182	16.4748	262.0875	-13.8831	102.3937	5.8644	166.2315	-0.0462	0.0182	-0.0073	-0.0462	0.0165	0.9715
11.2449	-15.9753	557.6346	43.9952	-197.1038	-38.8469	432.5839	13.2828	216.3468	-12.4315	84.2753	6.0191	137.3612	-0.0462	0.0182	-0.0073	-0.0462	0.0165	0.9715
11.2581	-13.0776	589.413	46.8281	-208.5002	-39.5701	452.5421	9.7494	174.357	-11.1377	67.5821	6.3715	110.8781	-0.0462	0.0182	-0.0073	-0.0462	0.0165	0.9715
11.2714	-10.3147	623.1858	49.773	-220.5596	-40.4317	473.821	6.0651	136.9611	-9.9351	52.67	6.8225	87.3154	-0.0462	0.0182	-0.0073	-0.0462	0.0165	0.9715
11.2847	-7.928	657.9613	52.8346	-232.9211	-41.5247	495.7236	2.4624	104.7065	-8.7692	39.7785	7.2649	67.0174	-0.0462	0.0182	-0.0073	-0.0462	0.0165	0.9715
11.298	-6.0168	692.307	55.9364	-245.0747	-42.8232	517.2123	-0.82341	77.8142	-7.6042	29.0154	7.6008	50.1205	-0.0462	0.0182	-0.0073	-0.0462	0.0165	0.9715
11.3113	-4.5509	724.5119	58.9463	-256.4171	-44.2096	537.0419	-3.5914	56.1894	-6.4274	20.3585	7.7568	36.5608	-0.0462	0.0182	-0.0073	-0.0462	0.0165	0.9715
11.3246	-3.4024	752.7984	61.7087	-266.3252	-45.5135	553.9286	-5.7024	39.47	-5.2503	13.6737	7.6939	26.104	-0.0462	0.0182	-0.0073	-0.0462	0.0165	0.9715
11.3379	-2.388	775.5551	64.0757	-274.2365	-46.5529	566.7286	-7.0951	27.0968	-4.1046	8.7423	7.4115	18.3899	-0.0462	0.0182	-0.0073	-0.0462	0.0165	0.9715
11.3511	-1.3132	791.5561	65.9309	-279.7251	-47.1702	574.5998	-7.7897	18.3918	-3.0345	5.2929	6.944	12.98	-0.0462	0.0182	-0.0073	-0.0462	0.0165	0.9715
11.3644	-0.012067	800.1327	67.2051	-282.5622	-47.2582	577.1222	-7.879	12.6285	-2.0872	3.0311	6.3523	9.4039	-0.0462	0.0182	-0.0073	-0.0462	0.0165	0.9715
11.3777	1.6247	801.2748	67.8832	-282.7509	-46.7751	574.3616	0	0	0	0	0	0	-0.0462	0.0182	-0.0073	-0.0462	0.0165	0.9715
11.391	3.6349	795.6461	68.0048	-280.5312	-45.7477	566.8676	0	0	0	0	0	0	-0.0462	0.0182	-0.0073	-0.0462	0.0165	0.9715
11.4043	5.9849	784.5132	67.6578	-276.3554	-44.2644	555.6094	0	0	0	0	0	0	-0.0462	0.0182	-0.0073	-0.0462	0.0165	0.9715
11.4176	8.5824	769.5985	66.9664	-270.8351	-42.4597	541.8583	0	0	0	0	0	0	-0.0462	0.0182	-0.0073	-0.0462	0.0165	0.9715
11.4309	11.2984	752.8789	66.0747	-264.6708	-40.492	527.0356	0	0	0	0	0	0	-0.0462	0.0182	-0.0073	-0.0462	0.0165	0.9715
11.4441	13.992	736.3603	65.1277	-258.5721	-38.5203	512.5495	0	0	0	0	0	0	-0.0462	0.0182	-0.0073	-0.0462	0.0165	0.9715
11.4574	16.5343	721.8605	64.2534	-253.1809	-36.6821	499.6437	0	0	0	0	0	0	-0.0462	0.0182	-0.0073	-0.0462	0.0165	0.9715
11.4707	18.8264	710.828	63.5473	-249.0079	-35.0778	489.2775	0	0	0	0	0	0	-0.0462	0.0182	-0.0073	-0.0462	0.0165	0.9715
11.484	20.8091	704.2182	63.0639	-246.3887	-33.7613	482.0505	0	0	0	0	0	0	-0.0462	0.0182	-0.0073	-0.0462	0.0165	0.9715
11.4973	22.4662	702.436	62.8148	-245.4643	-32.7401	478.1756	0	0	0	0	0	0	-0.0462	0.0182	-0.0073	-0.0462	0.0165	0.9715
11.5106	23.8207	705.3457	62.774	-246.1847	-31.9814	477.4978	0	0	0	0	0	0	-0.0462	0.0182	-0.0073	-0.0462	0.0165	0.9715
11.5239	24.9275	712.3406	62.888	-248.3338	-31.4232	479.5518	0	0	0	0	0	0	-0.0462	0.0182	-0.0073	-0.0462	0.0165	0.9715
11.5371	25.8638	722.4535	63.0896	-251.5688	-30.9883	483.6442	-3.9828	10.3244	-0.48165	2.3934	3.9238	8.5585	-0.0462	0.0182	-0.0073	-0.0462	0.0165	0.9715
11.5504	26.7182	734.4915	63.3116	-255.468	-30.5984	488.9483	-4.5704	12.0151	-0.48061	3.0818	4.1582	10.1492	-0.0462	0.0182	-0.0073	-0.0462	0.0165	0.9715
11.5637	27.581	747.175	63.4998	-259.5793	-30.1862	494.5982	-5.2825	13.2863	-0.48235	3.5941	4.4542	11.3729	-0.0462	0.0182	-0.0073	-0.0462	0.0165	0.9715
11.577	28.5357	759.2674	63.6215	-263.4658	-29.7036	499.7743	-6.0475	13.6439	-0.4954	3.7267	4.787	11.7849	-0.0462	0.0182	-0.0073	-0.0462	0.0165	0.9715
11.5903	29.6542	769.685	63.6704	-266.7436	-29.126	503.7729	-6.745	12.6048	-0.52202	3.2813	5.1057	10.9503	-0.0462	0.0182	-0.0073	-0.0462	0.0165	0.9715
11.6036	30.9931	777.5824	63.6659	-269.1113	-28.4518	506.0589	0	0	0	0	0	0	-0.0462	0.0182	-0.0073	-0.0462	0.0165	0.9715
11.6169	32.5917	782.4075	63.6478	-270.3689	-27.6982	506.2977	0	0	0	0	0	0	-0.0462	0.0182	-0.0073	-0.0462	0.0165	0.9715
11.6301	34.4701	783.9224	63.6672	-270.4246	-26.8946	504.365	0	0	0	0	0	0	-0.0462	0.0182	-0.0073	-0.0462	0.0165	0.9715
11.6434	36.6283	782.1866	63.7732	-269.2896	-26.0739	500.334	0	0	0	0	0	0	-0.0462	0.0182	-0.0073	-0.0462	0.0165	0.9715
11.6567	39.0457	777.503	63.9985	-267.061	-25.2631	494.4369	0	0	0	0	0	0	-0.0462	0.0182	-0.0073	-0.0462	0.0165	0.9715
11.67	41.6808	770.3281	64.3439	-263.8926	-24.4745	487.0071	0	0	0	0	0	0	-0.0462	0.0182	-0.0073	-0.0462	0.0165	0.9715
11.6833	44.4705	761.1531	64.766	-259.9579	-23.699	478.4023	0	0	0	0	0	0	-0.0462	0.0182	-0.0073	-0.0462	0.0165	0.9715
11.6966	47.3283	750.3688	65.1691	-255.4058	-22.9031	468.9192	0	0	0	0	0	0	-0.0462	0.0182	-0.0073	-0.0462	0.0165	0.9715
11.7099	50.1419	738.1339	65.4061	-250.3179	-22.0316	458.7119	8.4432	12.7913	0.65049	3.3604	-2.0538	9.9889	-0.0462	0.0182	-0.0073	-0.0462	0.0165	0.9715
11.7231	52.7703	724.2724	65.2889	-244.6738	-21.0159	447.7272	9.4982	41.6032	0.82526	15.2716	-2.5664	35.1229	-0.0462	0.0182	-0.0073	-0.0462	0.0165	0.9715
